# xmcd
#
# Track frame offsets: 
#        150
#        21881
#        42025
#        56336
#        80496
#        103183
#        132923
#        155363
#        172460
#        192966
#        210984
#        230436
#
# Disc length: 3322 seconds
#
# Revision: 0
# Processed by: cddbd v1.5.2PL0 Copyright (c) Steve Scherf et al.
# Submitted via: ExactAudioCopy v1.0b1
#
DISCID=9c0cf80c
DTITLE=BlueTouch - IV
DYEAR=2014
DGENRE=Blues
TTITLE0=Wayfaring Stranger
TTITLE1=Company Man
TTITLE2=Big Bad Handsome Man
TTITLE3=Stack O' Bob
TTITLE4=Cant Make You Love Me
TTITLE5=Strip Me Naked
TTITLE6=Hangman Jury
TTITLE7=Tie A Yellow Ribbon
TTITLE8=St James Infirmary
TTITLE9=32-20
TTITLE10=Trouble
TTITLE11=Magnolia Blues
EXTD=
EXTT0=
EXTT1=
EXTT2=
EXTT3=
EXTT4=
EXTT5=
EXTT6=
EXTT7=
EXTT8=
EXTT9=
EXTT10=
EXTT11=
PLAYORDER=
